<svg id="Capa_1" enable-background="new 0 0 512 512" height="512" viewBox="0 0 512 512" width="512" xmlns="http://www.w3.org/2000/svg" xmlns:xlink="http://www.w3.org/1999/xlink"><linearGradient id="SVGID_1_" gradientUnits="userSpaceOnUse" x1="256" x2="256" y1="481" y2="181"><stop offset="0" stop-color="#5558ff"/><stop offset="1" stop-color="#00c0ff"/></linearGradient><linearGradient id="SVGID_2_" gradientUnits="userSpaceOnUse" x1="256" x2="256" y1="421" y2="31"><stop offset="0" stop-color="#addcff"/><stop offset=".5028" stop-color="#eaf6ff"/><stop offset="1" stop-color="#eaf6ff"/></linearGradient><g><g><g><path d="m511.075 410.461c-.038-.21-.079-.419-.125-.627l-31.627-142.616c-9.03-49.98-52.43-86.218-103.323-86.218-16.632 0-32.546 3.78-47.299 11.235-19.459 9.833-38.803 15.821-57.701 17.912l-15-7.147-15 7.146c-18.898-2.091-38.243-8.079-57.704-17.913-14.753-7.453-30.666-11.233-47.296-11.233-50.893 0-94.293 36.238-103.322 86.218 0 0-31.715 143.033-31.753 143.243-.614 3.46-.925 7.005-.925 10.539 0 33.084 26.916 60 60 60 23.428 0 28.949-4.912 81.759-51.901 11.543-10.271 25.7-22.867 43.025-38.099h142.434c17.529 15.411 31.796 28.108 43.43 38.462 52.427 46.661 57.908 51.538 81.352 51.538 33.084 0 60-26.916 60-60 0-3.534-.311-7.079-.925-10.539z" fill="url(#SVGID_1_)"/></g></g><g><g><path d="m196 331c-24.813 0-45 20.187-45 45s20.187 45 45 45 45-20.187 45-45-20.187-45-45-45zm-45-30h15c8.284 0 15-6.716 15-15s-6.716-15-15-15h-15v-15c0-8.284-6.716-15-15-15s-15 6.716-15 15v15h-15c-8.284 0-15 6.716-15 15s6.716 15 15 15h15v15c0 8.284 6.716 15 15 15s15-6.716 15-15zm75-30c-8.284 0-15 6.716-15 15s6.716 15 15 15 15-6.716 15-15-6.716-15-15-15zm90 60c-24.813 0-45 20.187-45 45s20.187 45 45 45 45-20.187 45-45-20.187-45-45-45zm-45-165c0-8.271 6.729-15 15-15h60c24.813 0 45-20.187 45-45s-20.187-45-45-45h-180c-8.271 0-15-6.729-15-15 0-8.284-6.716-15-15-15s-15 6.716-15 15c0 24.813 20.187 45 45 45h180c8.271 0 15 6.729 15 15s-6.729 15-15 15h-60c-24.813 0-45 20.187-45 45v44.146c5.033.557 10.036.854 15 .854s9.967-.296 15-.854zm135 105h-15v-15c0-8.284-6.716-15-15-15s-15 6.716-15 15v15h-15c-8.284 0-15 6.716-15 15s6.716 15 15 15h15v15c0 8.284 6.716 15 15 15s15-6.716 15-15v-15h15c8.284 0 15-6.716 15-15s-6.716-15-15-15zm-135 15c0 8.284 6.716 15 15 15s15-6.716 15-15-6.716-15-15-15-15 6.716-15 15z" fill="url(#SVGID_2_)"/></g></g></g></svg>