<?xml version="1.0" encoding="UTF-8" standalone="no"?>
<svg
   xmlns:dc="http://purl.org/dc/elements/1.1/"
   xmlns:cc="http://creativecommons.org/ns#"
   xmlns:rdf="http://www.w3.org/1999/02/22-rdf-syntax-ns#"
   xmlns:svg="http://www.w3.org/2000/svg"
   xmlns="http://www.w3.org/2000/svg"
   xmlns:sodipodi="http://sodipodi.sourceforge.net/DTD/sodipodi-0.dtd"
   xmlns:inkscape="http://www.inkscape.org/namespaces/inkscape"
   version="1.1"
   id="Capa_1"
   x="0px"
   y="0px"
   viewBox="0 0 13.802 13.802"
   style="enable-background:new 0 0 13.802 13.802;"
   xml:space="preserve"
   sodipodi:docname="mac-logo.svg"
   inkscape:version="1.0.1 (3bc2e813f5, 2020-09-07)"><metadata
   id="metadata45"><rdf:RDF><cc:Work
       rdf:about=""><dc:format>image/svg+xml</dc:format><dc:type
         rdf:resource="http://purl.org/dc/dcmitype/StillImage" /></cc:Work></rdf:RDF></metadata><defs
   id="defs43" /><sodipodi:namedview
   pagecolor="#ffffff"
   bordercolor="#666666"
   borderopacity="1"
   objecttolerance="10"
   gridtolerance="10"
   guidetolerance="10"
   inkscape:pageopacity="0"
   inkscape:pageshadow="2"
   inkscape:window-width="1920"
   inkscape:window-height="1027"
   id="namedview41"
   showgrid="false"
   inkscape:zoom="57.48519"
   inkscape:cx="6.901"
   inkscape:cy="6.901"
   inkscape:window-x="-8"
   inkscape:window-y="-8"
   inkscape:window-maximized="1"
   inkscape:current-layer="Capa_1" />
<g
   id="g8"
   style="fill:#3a79ff;fill-opacity:1">
	<g
   id="g6"
   style="fill:#3a79ff;fill-opacity:1">
		<path
   style="fill:#3a79ff;fill-opacity:1"
   d="M10.668,7.333c-0.018-1.749,1.426-2.586,1.49-2.628c-0.811-1.185-2.073-1.348-2.524-1.366    c-1.073-0.11-2.096,0.632-2.642,0.632c-0.544,0-1.386-0.617-2.277-0.601C3.543,3.388,2.464,4.052,1.86,5.1    c-1.217,2.112-0.312,5.24,0.874,6.955c0.58,0.838,1.272,1.779,2.179,1.746c0.874-0.035,1.204-0.566,2.261-0.566    s1.354,0.566,2.278,0.549c0.941-0.018,1.536-0.855,2.111-1.695c0.666-0.973,0.94-1.916,0.957-1.963    C12.498,10.114,10.687,9.421,10.668,7.333z"
   id="path2" />
		<path
   style="fill:#3a79ff;fill-opacity:1"
   d="M8.93,2.204C9.411,1.621,9.737,0.809,9.648,0C8.953,0.028,8.114,0.461,7.615,1.045    C7.168,1.562,6.779,2.387,6.883,3.18C7.657,3.241,8.449,2.786,8.93,2.204z"
   id="path4" />
	</g>
</g>
<g
   id="g10">
</g>
<g
   id="g12">
</g>
<g
   id="g14">
</g>
<g
   id="g16">
</g>
<g
   id="g18">
</g>
<g
   id="g20">
</g>
<g
   id="g22">
</g>
<g
   id="g24">
</g>
<g
   id="g26">
</g>
<g
   id="g28">
</g>
<g
   id="g30">
</g>
<g
   id="g32">
</g>
<g
   id="g34">
</g>
<g
   id="g36">
</g>
<g
   id="g38">
</g>
</svg>
